<svg width="53" height="31" viewBox="0 0 53 31" fill="none" xmlns="http://www.w3.org/2000/svg">
<path d="M50.96 23.46C50.96 19.44 50.96 10.2 50.96 10.2C50.96 3.84 48.26 1.14 41.48 0.899999C39.68 0.659999 37.94 0.839998 36.56 1.26C30.8 3 26.78 7.68 20.54 19.86C18.2 24.48 16.34 27.48 11.54 27.48C8.84 27.18 8.42 21.84 8.3 17.7C9.8 17.58 11.18 17.34 12.44 16.98C19.76 15.6 23.24 11.82 22.7 7.26C22.28 3.72 18.56 0.959998 12.86 1.32C12.62 1.32 12.44 1.32 12.2 1.32V1.26C3.74 1.26 0.0800001 6.3 0.0800001 15.78C0.0800001 24.24 2.42 30.66 11.48 29.94H11.54C17.66 29.94 20.24 25.92 22.76 21C28.64 9.48 32.3 5.1 37.28 3.6C38.48 3.3 39.98 3.12 41.3 3.36C42.92 3.96 42.74 7.2 42.74 8.22V9.06C42.02 10.92 40.64 11.04 38.06 11.16C37.76 11.16 37.46 11.22 37.22 11.22C37.16 11.22 37.16 11.22 37.16 11.22C31.4 11.16 25.88 14.76 25.88 20.7C25.88 26.16 28.22 30.3 37.04 29.94C37.1 29.94 37.16 29.94 37.28 29.94C39.56 29.94 41.66 28.8 43.1 26.94C44.6 30.78 50.18 30.9 52.58 28.38C52.1 28.2 50.96 27.54 50.96 23.46ZM12.14 3.78C12.5 3.78 12.86 3.78 13.16 3.84C14.18 4.26 14.84 5.7 15.08 7.8C15.5 10.44 15.26 12.9 12.92 14.16C11.6 14.76 10.04 15.12 8.24 15.24C8.12 8.88 8.66 4.14 12.14 3.78ZM42.74 22.2C42.08 25.02 40.22 27.12 37.88 27.42C34.4 27.6 34.22 23.58 34.1 20.7C33.98 16.32 35.72 13.92 38.06 13.62C38.06 13.62 38.12 13.62 38.18 13.62C39.74 13.56 41.36 13.5 42.74 12.72V22.2Z" fill="grey"/>
</svg>
